<svg xmlns="http://www.w3.org/2000/svg" viewBox="0 0 511.24 511.24"><g fill="#adb3ba"><path d="M132.42 511.24c40.533-133.333 107.733-358.4 107.733-360.533-1.067-4.267-5.333-7.467-5.333-7.467l-7.467 8.533L116.42 511.24h16z"/><path d="M225.22 178.44c0-1.067 0-1.067-1.067-2.133l-48-3.2v11.734l46.933 2.133c1.067-4.268 2.134-6.401 2.134-8.534zm-36.267 123.733c0-1.067 0-1.067-1.067-2.133l-48-3.2v11.734l46.933 2.133c1.068-4.267 1.068-6.401 2.134-8.534zM148.42 445.106c0-1.067 0-1.067-1.067-2.133l-48-3.2v11.734l46.933 2.133c1.067-4.267 2.134-6.4 2.134-8.534z"/></g><path d="M238.02 154.973L130.287 511.24h4.267l105.6-355.2c1.067-4.267-1.067-9.6-5.333-11.733h-1.067c4.266 2.133 5.333 6.399 4.266 10.666z" fill="#e8eae9"/><g fill="#adb3ba"><path d="M363.887 511.24c-19.2-60.8-113.067-365.867-115.2-368-3.2-3.2-8.533-3.2-8.533-3.2l-1.067 11.733L346.82 511.24h17.067z"/><path d="M290.287 481.373l58.666-12.8-3.2-8.533-57.6 10.666zm-19.2-78.933l56.533-6.4-2.133-8.534-57.6 4.267zm29.866-86.4l-51.2 5.333-2.133-10.667 51.2-4.266zm-17.066-70.4l-51.2 5.333-3.2-10.667 51.2-3.2zm-24.534-66.134l-43.733 5.334-3.2-10.667 43.733-3.2z"/></g><path d="M249.753 146.44l112 364.8h5.333l-115.2-364.8c-1.067-4.267-6.4-7.467-10.667-6.4h-1.067c4.268 0 7.468 2.133 9.601 6.4z" fill="#e8eae9"/><path d="M88.687 511.24c35.2-123.733 103.467-368 103.467-369.067-1.067-4.267-5.333-7.467-5.333-7.467l-7.467 8.533-104.533 368h13.866z" fill="#adb3ba"/><path d="M191.087 146.44L87.62 511.24h2.133L193.22 147.506c1.067-4.267-1.067-9.6-5.333-11.733h-1.067c3.2 2.133 5.333 6.4 4.267 10.667z" fill="#e8eae9"/><path d="M294.553 511.24c-13.867-57.6-90.667-373.333-92.8-376.533-2.133-3.2-8.533-3.2-8.533-3.2l-2.133 11.733 87.467 368h15.999z" fill="#ced6e0"/><path d="M202.82 138.973l89.6 372.267h5.333l-93.867-372.267c-1.067-4.267-5.333-7.467-10.667-7.467h-1.067c5.335 0 9.601 3.2 10.668 7.467z" fill="#e8eae9"/><path d="M233.753 212.573c0 2.133-7.467 12.8-7.467 12.8l-1.067-5.333s-8.533 5.333-9.6 5.333c-2.133 1.067-6.4 1.067-6.4-2.133 0-2.133 1.067-2.133 2.133-2.133-1.067 0-1.067 0-2.133-2.133-1.067-2.133 0-4.267 0-4.267s-1.067 0-2.133-2.133c-1.067-1.067 0-2.133 1.067-3.2 0 0-1.067 0-1.067-1.067-1.067-2.133 2.133-6.4 2.133-6.4 1.067-3.2 2.133-3.2 4.267-6.4 2.133-3.2 5.333-8.533 5.333-8.533l19.2-1.067s-2.133 9.6-2.133 11.733c-2.133 4.266-2.133 12.8-2.133 14.933z" fill="#ffd15c"/><path d="M306.287 354.44s5.333 5.333 5.333 9.6c0 4.267-4.267 10.667-4.267 10.667l-5.333-1.067 4.267-19.2zm-26.667 34.133c0 1.067 0 2.133 2.133 2.133s7.467-1.067 10.667 1.067c4.267 2.133 6.4 3.2 9.6 2.133 3.2-2.133 7.467-3.2 4.267-10.667s-2.133-6.4-2.133-6.4l-24.534 11.734c1.067-1.067 0 0 0 0z" fill="#415a6b"/><path d="M298.82 344.84s4.267 20.267 3.2 25.6c-1.067 5.333-19.2 6.4-19.2 6.4s-6.4 4.267-3.2 10.667c0 0 10.667-1.067 16 0s9.6 3.2 10.667 0c1.067-4.267-2.133-10.667-1.067-13.867 1.067-3.2 4.267-11.733 3.2-16-1.067-4.267-1.067-11.734-9.6-12.8z" fill="#344a5e"/><path d="M303.087 464.306v1.067c0 1.067 1.067 2.133 2.133 2.133 2.133 0 4.267-1.067 7.467 0 6.4 1.067 11.733 3.2 16 3.2s6.4-2.133 6.4-7.467v-5.333l-32 6.4z" fill="#415a6b"/><path d="M335.087 454.706s0 7.467-1.067 10.667-5.333 3.2-9.6 2.133-14.933-5.333-21.333-3.2c0 0 1.067-4.267 4.267-6.4s4.267-19.2 4.267-19.2l23.466 16z" fill="#344a5e"/><path d="M272.153 74.973l-10.667-5.333s-2.133-2.133-3.2 5.333c-1.067 6.4-1.067 10.667-5.333 13.867-4.267 3.2-6.4 6.4-8.533 10.667-2.133 4.267-6.4 12.8-8.533 16-2.133 3.2-4.267 5.333-5.333 8.533-1.067 3.2-5.333 8.533-5.333 11.733-1.067 3.2 0 4.267-3.2 8.533-3.2 4.267-5.333 9.6-6.4 20.267-1.067 10.667-1.067 24.533-1.067 24.533s17.067-3.2 20.267 6.4c0 0 4.267-16 6.4-21.333 2.133-5.333 8.533-20.267 9.6-23.467 1.067-3.2 19.2-26.667 19.2-26.667l2.132-49.066z" fill="#415a6b"/><path d="M358.553 246.706s8.533-5.333 21.333-8.533c12.8-3.2 22.4 4.267 29.867 6.4 7.467 2.133 9.6 2.133 9.6 2.133l-17.067-45.867-29.867-53.333-41.6 24.533 27.734 74.667z" fill="#2e4556"/><path d="M361.753 184.84s7.467 29.867 4.267 67.2-9.6 114.133-9.6 126.933c-1.067 12.8-5.333 42.667-7.467 51.2-2.133 8.533-12.8 28.8-12.8 28.8s-4.267-6.4-12.8-7.467c-9.6-1.067-14.933 1.067-14.933 1.067s-1.067-9.6 2.133-20.267 5.333-29.867 6.4-42.667c1.067-12.8 2.133-51.2 1.067-70.4-1.067-19.2-3.2-46.933-4.267-50.133-1.067-3.2-2.133-5.333-2.133-5.333s-11.733 24.533-21.333 35.2c0 0 1.067 5.333 1.067 8.533 0 4.267-1.067 7.467-1.067 7.467s2.133 3.2 3.2 7.467c0 4.267-1.067 6.4 1.067 9.6 1.067 2.133 6.4 9.6 8.533 20.267 2.133 10.667 1.067 19.2 1.067 19.2s-1.067 4.267-7.467 5.333c-6.4 1.067-12.8 1.067-12.8 1.067s-5.333-13.867-7.467-22.4-8.533-14.933-12.8-21.333c-4.267-5.333-14.933-18.133-13.867-29.867 1.067-11.733 3.2-21.333 5.333-28.8 3.2-7.467 4.267-25.6 6.4-32 2.133-7.467 17.067-50.133 17.067-50.133l-2.133-12.8 85.333 4.266z" fill="#415a6b"/><path d="M358.553 36.573c0-2.133-6.4-8.533-6.4-8.533l2.133-2.133c-1.067-8.533-9.6-20.267-9.6-20.267-39.467-2.133-35.2 44.8-35.2 49.067 0 4.267-3.2 18.133-3.2 18.133l32 16V78.174c0-4.267 0-8.533 1.067-9.6 2.133-3.2 4.267-4.267 7.467-5.333 3.2-1.067 10.667-2.133 9.6-6.4 0-3.2-1.067-3.2 0-5.333 1.067-3.2-1.067-3.2-1.067-3.2s2.133 0 1.067-2.133c-1.067-2.133-1.067-5.333-1.067-5.333s3.2-1.069 3.2-4.269z" fill="#ffd15c"/><path d="M315.887 69.64l11.733 4.267h20.267s28.8 97.067 30.933 102.4c0 1.067-10.667-33.067-11.733-30.933-2.133 6.4 4.267 46.933-3.2 48-26.667 1.067-53.333-1.067-80-5.333L298.82 68.573l17.067 1.067z" fill="#f3705a"/><path d="M296.687 127.24s-3.2 32-5.333 43.733-25.6 68.267-29.867 75.733-5.333 14.933-5.333 14.933-4.267-16 0-25.6c4.267-9.6 7.467-56.533 9.6-61.867 1.067-6.4-1.067-26.667-1.067-43.733s-4.267-59.733-4.267-59.733 32-10.667 40.533-7.467l-4.266 64.001z" fill="#2e4556"/><path d="M384.153 22.706s0-4.267 1.067-5.333c2.133-1.067 3.2-1.067 6.4 3.2l-7.467 2.133z" fill="#ffd15c"/><g fill="#2e4556"><path d="M361.753 28.04c-1.067 0-2.133 2.133-1.067 4.267 0 2.133 1.067 3.2 2.133 3.2l16-1.067c1.067 0 2.133-2.133 2.133-4.267s-1.067-4.267-3.2-4.267l-15.999 2.134z"/><path d="M369.22 24.84c-2.133 0-3.2 3.2-2.133 6.4 0 4.267 2.133 5.333 4.267 5.333l27.733-2.133c2.133 0 3.2-3.2 3.2-7.467s-2.133-7.467-4.267-6.4l-28.8 4.267z"/></g><ellipse transform="rotate(-6.512 398 27.344)" cx="397.981" cy="27.344" rx="3.2" ry="7.466" fill="#344a5e"/><ellipse transform="rotate(-6.512 397.243 28.198)" cx="397.224" cy="28.197" rx="2.133" ry="5.333" fill="#77b5f7"/><ellipse transform="rotate(-6.512 398.893 26.321)" cx="398.874" cy="26.32" rx="1.067" ry="2.133" fill="#fff"/><path d="M398.02 21.64c1.067 0 3.2 2.133 3.2 6.4s-1.067 6.4-2.133 6.4c-1.067 0-3.2-2.133-3.2-6.4v-5.333c0-1.067 1.066-1.067 2.133-1.067m0-1.067c-2.133 0-3.2 3.2-3.2 7.467s2.133 6.4 4.267 6.4c2.133 0 3.2-3.2 3.2-7.467-1.067-3.2-2.134-6.4-4.267-6.4z" fill="#415a6b"/><path d="M347.887 22.706c-1.067 0-2.133 2.133-1.067 4.267 0 2.133 1.067 3.2 2.133 3.2l16-1.067c1.067 0 2.133-2.133 2.133-4.267s-1.067-4.267-3.2-4.267l-15.999 2.134z" fill="#2e4556"/><g fill="#344a5e"><path d="M355.353 19.506c-2.133 0-3.2 3.2-2.133 6.4 0 4.267 2.133 5.333 4.267 5.333l26.667-1.067c2.133 0 3.2-3.2 3.2-7.467s-2.133-7.467-4.267-6.4l-27.734 3.201z"/><ellipse transform="rotate(-6.512 384.03 23.3)" cx="384.011" cy="23.298" rx="3.2" ry="7.466"/></g><ellipse transform="rotate(-6.512 383.056 23.093)" cx="383.037" cy="23.092" rx="2.133" ry="5.333" fill="#77b5f7"/><ellipse transform="rotate(-6.512 384.77 21.215)" cx="384.751" cy="21.215" rx="1.067" ry="2.133" fill="#fff"/><path d="M383.087 16.306c1.067 0 3.2 2.133 3.2 6.4s-1.067 6.4-2.133 6.4c-1.067 0-3.2-2.133-3.2-6.4v-5.333c1.066 0 1.066-1.067 2.133-1.067m0-1.066c-2.133 0-3.2 3.2-3.2 7.467s2.133 6.4 4.267 6.4c2.133 0 3.2-3.2 3.2-7.467-.001-3.2-2.134-6.4-4.267-6.4z" fill="#415a6b"/><path d="M368.153 37.64l-3.2-5.333s4.267-2.133 7.467 3.2l2.133 1.067 20.267-1.067 16 16-13.867 10.667-13.867-16c-1.067-1.067-2.133-1.067-3.2-2.133l-3.2-1.067c-1.067 0-3.2-1.067-4.267-2.133l-4.266-3.201zm4.267-20.267s-1.067-1.067-1.067-2.133 6.4 0 7.467 1.067l-6.4 1.066z" fill="#ffd15c"/><path d="M309.487 55.773s4.267-5.333 4.267-13.867 1.067-11.733 4.267-11.733 4.267 4.267 4.267 4.267l5.333-3.2s-1.067-4.267 1.067-7.467c3.2-3.2 4.267-6.4 3.2-8.533s11.733-8.533 18.133 2.133c0 0 4.267-7.467-2.133-12.8-6.4-5.333-19.2-6.4-30.933-1.067s-14.933 11.733-16 17.067-2.133 16 1.067 22.4c3.198 6.4 4.265 10.667 7.465 12.8z" fill="#344a5e"/><path d="M319.087 41.906c-2.133 0-5.333-2.133-5.333-6.4s1.067-7.467 4.267-7.467c2.133 0 5.333 2.133 5.333 6.4s-1.067 7.467-4.267 7.467z" fill="#ffd15c"/><path d="M331.887 53.64l-8.533-5.333s6.4 11.733 19.2 18.133c1.067-1.067 3.2-2.133 5.333-2.133 2.133-1.067 5.333-1.067 7.467-3.2-5.334-1.067-17.067-3.201-23.467-7.467z" fill="#f7b64c"/><path d="M384.153 47.24s16-9.6 16-11.733l7.467 11.733-18.133 8.533-5.334-8.533z" fill="#fff"/><path d="M382.02 49.373s18.133-5.333 22.4-12.8c0 0 10.667 17.067 16 24.533 5.333 7.467 16 29.867 16 33.067 0 3.2-1.067 5.333-3.2 8.533s-28.8 11.733-36.267 12.8c-6.4 1.067-7.467 1.067-7.467 1.067l-19.2-36.267s27.733 1.067 29.867 2.133 0-2.133 0-4.267c0-2.133-5.333-10.667-5.333-12.8s-12.8-15.999-12.8-15.999z" fill="#415a6b"/><path d="M366.02 159.24s1.067 0 0 0c2.133 4.267 14.933 35.2 21.333 45.867 7.467 11.733 29.867 32 29.867 41.6 0 0 0-11.733-3.2-27.733s-13.867-67.2-16-76.8c-2.133-9.6-8.533-35.2-10.667-42.667-2.133-7.467-9.6-29.867-13.867-34.133l-34.133 5.333 18.133 66.133c1.067-1.067 5.334 17.066 8.534 22.4z" fill="#344a5e"/><path d="M340.42 67.506l-3.2 22.4s-1.067-12.8-8.533-16c1.066 0 6.4-1.066 11.733-6.4zm-11.733 6.4s-1.067-1.067-7.467 3.2c-6.4 4.267-8.533 7.467-8.533 7.467s-8.533-13.867-8.533-19.2 5.333-10.667 5.333-10.667 3.2 7.467 11.733 11.733c8.533 4.267 7.467 7.467 7.467 7.467z" fill="#f3f3f3"/><path d="M307.353 58.973s-9.6 8.533-20.267 11.733l5.333 6.4-8.533 3.2s6.4 54.4 8.533 62.933c1.067 7.467 1.067 21.333 0 27.733 0 0 5.333-13.867 6.4-37.333s5.334-66.133 8.534-74.666zM340.42 69.64l13.867 9.6-3.2 3.2h8.533s4.267 32 4.267 43.733-1.067 17.067 1.067 23.467 3.2 8.533 3.2 8.533-7.467-11.733-9.6-22.4c-2.133-10.667-17.067-53.333-17.067-53.333s-2.134-8.534-1.067-12.8z" fill="#415a6b"/><ellipse cx="192.153" cy="141.106" rx="12.8" ry="12.8" fill="#e8eae9"/><ellipse cx="192.153" cy="141.106" rx="9.6" ry="10.667" fill="#ced6e0"/></svg>