<svg aria-hidden="true" focusable="false" data-prefix="far" data-icon="error-circle" class="svg-inline--fa fa-error-circle fa-w-16" role="img" xmlns="http://www.w3.org/2000/svg" viewBox="0 0 512 512"><path fill="#F05540" d="M248,0 C111.033,0 0,111.033 0,248 C0,384.967 111.033,496 248,496 C384.967,496 496,384.967 496,248 C496,111.033 384.967,0 248,0 Z M248,48 C358.532,48 448,137.451 448,248 C448,358.532 358.549,448 248,448 C137.468,448 48,358.549 48,248 C48,137.468 137.451,48 248,48 Z"></path><path fill="#F05540" d="M291,341.5 C291,364.9345 271.9345,384 248.5,384 C225.0655,384 206,364.9345 206,341.5 C206,318.0655 225.0655,299 248.5,299 C271.9345,299 291,318.0655 291,341.5 Z M210.919375,125.386969 L218.144375,269.886969 C218.483844,276.672625 224.084281,282 230.878437,282 L266.121562,282 C272.915719,282 278.516156,276.672625 278.855625,269.886969 L286.080625,125.386969 C286.444531,118.104062 280.6385,112 273.346562,112 L223.653437,112 C216.3615,112 210.555469,118.104062 210.919375,125.386969 Z"></path></svg>
